<svg fill="none" stroke="#b8860b" stroke-width="1.2" viewBox="0 0 500 500" xmlns="http://www.w3.org/2000/svg"><path d="m0 0h500v500h-500z" fill="#0a0a0a"/><path d="m0 0h500v500h-500z" fill="none" opacity=".03"/><g transform="translate(250 250)"><circle r="200" stroke-width="1.5"/><circle opacity=".7" r="150" stroke-dasharray="6 3"/><circle opacity=".5" r="100" stroke-width="1"/><circle opacity=".4" r="50" stroke-dasharray="3 3"/><path d="m-200 0h400"/><path d="m0-200v400"/><path d="m-141.4-141.4 282.8 282.8"/><path d="m-141.4 141.4 282.8-282.8"/><path d="m0-200v400" opacity=".3" transform="matrix(.96592583 .25881905 -.25881905 .96592583 0 0)"/><path d="m0-200v400" opacity=".3" transform="matrix(.8660254 .5 -.5 .8660254 0 0)"/><path d="m0-200v400" opacity=".3" transform="matrix(.5 .8660254 -.8660254 .5 0 0)"/><path d="m0-200v400" opacity=".3" transform="matrix(.25881905 .96592583 -.96592583 .25881905 0 0)"/><path d="m0-80 76 55-29 90h-94l-29-90z" stroke="#d4a852"/><circle fill="#d4a852" r="10"/><path d="m0-120 104 60v120l-104 60-104-60v-120z" stroke="#8b5e34" stroke-width=".8"/></g></svg>